<svg width="76" height="14" fill="none" xmlns="http://www.w3.org/2000/svg"><path d="M0 1.406V0h9.818v1.406H5.702v11.685H4.116V1.406H0zm16.233 11.685H14.57L19.378 0h1.636l4.807 13.09h-1.662L20.247 2.072h-.102l-3.912 11.02zm.613-5.114h6.7v1.407h-6.7V7.977zM57.306 0h1.585v8.668c0 .895-.211 1.694-.633 2.397-.418.699-1.008 1.25-1.77 1.655-.763.4-1.658.601-2.685.601-1.027 0-1.922-.2-2.685-.6a4.477 4.477 0 01-1.777-1.656c-.418-.704-.626-1.502-.626-2.397V0H50.3v8.54c0 .639.14 1.208.422 1.706.281.495.682.885 1.201 1.17.525.281 1.151.422 1.88.422.728 0 1.355-.14 1.879-.422a2.97 2.97 0 001.202-1.17c.281-.498.422-1.067.422-1.706V0zm9.711 13.09V0h7.9v1.406h-6.315V5.83h5.906v1.406h-5.906v4.449h6.418v1.406h-8.003z" fill="#fff"/><path d="M32.127 0l3.886 11.02h.154L40.053 0h1.662l-4.807 13.09h-1.636L30.465 0h1.662z" fill="#FDC700"/></svg>